<?xml version="1.0" standalone="no"?>
<!DOCTYPE svg PUBLIC "-//W3C//DTD SVG 1.1//EN" "http://www.w3.org/Graphics/SVG/1.1/DTD/svg11.dtd" >
<svg xmlns="http://www.w3.org/2000/svg">
<metadata>
Created by FontForge 20120731 at Fri Jun 30 13:00:44 2017
 By admin
</metadata>
<defs>
<font id="iconfont" horiz-adv-x="1024" >
  <font-face 
    font-family="iconfont"
    font-weight="500"
    font-stretch="normal"
    units-per-em="1024"
    panose-1="2 0 6 3 0 0 0 0 0 0"
    ascent="896"
    descent="-128"
    x-height="792"
    bbox="-1 -212 1024 898"
    underline-thickness="0"
    underline-position="0"
    unicode-range="U+0078-E7B5"
  />
<missing-glyph 
 />
    <glyph glyph-name=".notdef" 
 />
    <glyph glyph-name=".notdef" 
 />
    <glyph glyph-name=".null" horiz-adv-x="0" 
 />
    <glyph glyph-name="nonmarkingreturn" horiz-adv-x="341" 
 />
    <glyph glyph-name="x" unicode="x" horiz-adv-x="1001" 
d="M281 543q-27 -1 -53 -1h-83q-18 0 -36.5 -6t-32.5 -18.5t-23 -32t-9 -45.5v-76h912v41q0 16 -0.5 30t-0.5 18q0 13 -5 29t-17 29.5t-31.5 22.5t-49.5 9h-133v-97h-438v97zM955 310v-52q0 -23 0.5 -52t0.5 -58t-10.5 -47.5t-26 -30t-33 -16t-31.5 -4.5q-14 -1 -29.5 -0.5
t-29.5 0.5h-32l-45 128h-439l-44 -128h-29h-34q-20 0 -45 1q-25 0 -41 9.5t-25.5 23t-13.5 29.5t-4 30v167h911zM163 247q-12 0 -21 -8.5t-9 -21.5t9 -21.5t21 -8.5q13 0 22 8.5t9 21.5t-9 21.5t-22 8.5zM316 123q-8 -26 -14 -48q-5 -19 -10.5 -37t-7.5 -25t-3 -15t1 -14.5
t9.5 -10.5t21.5 -4h37h67h81h80h64h36q23 0 34 12t2 38q-5 13 -9.5 30.5t-9.5 34.5q-5 19 -11 39h-368zM336 498v228q0 11 2.5 23t10 21.5t20.5 15.5t34 6h188q31 0 51.5 -14.5t20.5 -52.5v-227h-327z" />
    <glyph glyph-name="gouwuche" unicode="&#xe629;" 
d="M891 601q26 0 40 -7.5t20 -18.5q5 -10 5 -23t-3 -21l-11 -37q-6 -19 -20 -61q-12 -37 -21 -67q-11 -34 -16 -51q-12 -40 -30 -56q-18 -15 -45 -15h-31h-59h-77h-84h-226l14 -90h458q43 0 43 -41q0 -19 -8 -34q-9 -14 -34 -14h-44h-84h-105h-106h-87h-50q-18 0 -31 9
q-12 8 -20 23q-8 14 -13 31q-5 16 -8 32q-1 8 -5 29l-10 57l-13 77l-15 85q-15 93 -39 224h-68q-13 0 -22.5 7.5t-15.5 18t-8 22.5t-2 22q0 20 12.5 33t32.5 13h20h19h22h31q18 0 29 -6t17 -15q7 -9 10 -19l4 -17q2 -9 4 -22l3 -30q2 -10 6 -38h621zM738.5 36
q17.5 0 33.5 -7t27 -20q11 -12 18 -29t7 -36t-7 -36q-7 -16 -18 -29q-11 -12 -27 -19.5t-33.5 -7.5t-33 7.5t-27 20t-17.5 28.5q-7 17 -7 36t7 36q6 17 18 29.5t27 19.5t32.5 7zM361 38q17 0 32.5 -7t27 -19.5t18 -29.5t6.5 -36t-6.5 -36t-18 -29t-27.5 -20q-15 -7 -32 -7
q-18 0 -33.5 7.5t-26.5 19.5q-12 13 -18 29q-7 17 -7 36t7 36q6 17 18 29q11 13 26 20q16 7 34 7v0z" />
    <glyph glyph-name="liebiao" unicode="&#xe601;" 
d="M284 578q22 0 36.5 -14.5t14.5 -35.5v-39q0 -22 -14.5 -36.5t-36.5 -14.5h-40q-21 0 -36 14.5t-15 36.5v39q0 21 15 35.5t36 14.5h40v0zM808 578q20 0 35 -14.5t15 -35.5v-39q0 -22 -15 -36.5t-35 -14.5h-326q-21 0 -36 14.5t-15 36.5v39q0 21 15 35.5t36 14.5h326v0z
M284 341q22 0 36.5 -15t14.5 -36v-39q0 -21 -14.5 -36t-36.5 -15h-40q-21 0 -36 15t-15 36v39q0 21 15 36t36 15h40v0zM808 341q20 0 35 -15t15 -36v-39q0 -21 -14.5 -36t-35.5 -15h-326q-21 0 -36 15t-15 36v39q0 21 15 36t36 15h326v0zM284 103q22 0 36.5 -15t14.5 -36
v-39q0 -21 -14.5 -36t-36.5 -15h-40q-21 0 -36 15t-15 36v39q0 21 15 36t36 15h40v0zM808 103q20 0 35 -15t15 -36v-39q0 -21 -14.5 -36t-35.5 -15h-326q-21 0 -36 15t-15 36v39q0 21 15 36t36 15h326v0zM808 103z" />
    <glyph glyph-name="saodijiqiren" unicode="&#xe686;" 
d="M911 470q-33 78 -93 138t-138 93q-81 34 -169.5 34t-169.5 -34q-78 -33 -138 -93t-93 -138q-34 -81 -34 -169.5t34 -169.5q33 -78 93 -138t138 -93q81 -35 169.5 -35t169.5 35q78 33 138 93t93 138q35 81 35 169.5t-35 169.5zM239.5 571.5q54.5 54.5 124.5 83.5t147 29
t147 -29t124 -83.5t83 -124.5t29 -147v-19h-96v14q0 118 -83.5 201.5t-202 83.5t-202 -83.5t-83.5 -201.5q0 -7 1 -14h-101v19q0 77 29 147t83.5 124.5zM782 29q-54 -54 -124 -83t-147 -29t-147 29t-125 83q-84 85 -106 201h120q16 0 23 15q6 8 4 18q-2 16 -2 32
q0 97 69 165.5t166 68.5t165.5 -68.5t68.5 -165.5q0 -14 -2 -28q-2 -6 -2 -11q0 -11 7.5 -18.5t18.5 -7.5h119q-21 -116 -106 -201zM512.5 433q-71.5 0 -122 -51t-50.5 -122.5t50.5 -122t122 -50.5t122.5 50.5t51 122t-51 122.5t-122.5 51zM512.5 138q-50.5 0 -86 35.5
t-35.5 86t35.5 86.5t86 36t86 -36t35.5 -86.5t-35.5 -86t-86 -35.5zM510.5 314q-22.5 0 -38.5 -16t-16 -38.5t16 -38t38.5 -15.5t38.5 15.5t16 38t-16 38.5t-38.5 16zM511 257q-3 0 -3 3q0 1 0.5 2t2.5 1q3 0 3 -3q0 -1 -1 -2t-2 -1z" />
    <glyph glyph-name="shuiguo" unicode="&#xe6f8;" 
d="M515.5 770q-95.5 0 -183 -37.5t-150.5 -100.5t-100.5 -150t-37.5 -183t37.5 -183t100.5 -150.5t150.5 -100.5t183 -37t182.5 37t150.5 100.5t100.5 150.5t37 183t-37 183t-100.5 150t-150.5 100.5t-182.5 37.5zM515 -114q-112 0 -207 55t-150.5 150.5t-55.5 207.5
t55.5 207t150.5 150.5t207 55.5t207.5 -55.5t150.5 -150.5t55 -207t-55 -207.5t-150.5 -150.5t-207.5 -55zM417 576q1 -72 25.5 -124.5t66.5 -52.5t66.5 52.5t25.5 124.5v0.5v0.5v0.5v0.5v1v1v4q-3 36 -29.5 60.5t-62.5 24.5t-62 -24.5t-29 -60.5q-1 -2 -1 -4v-1v-1v-0.5
v-0.5v-0.5v-0.5zM509 611q14 0 24 -10t10 -24q0 -34 -7 -62.5t-14 -42t-13 -15.5q-6 2 -13 15.5t-13.5 42t-7.5 62.5q1 14 10.5 24t23.5 10zM611 28q-1 71 -25.5 124t-66.5 53t-66.5 -53t-25.5 -124v-0.5v-0.5v-0.5v-1v-1v-1.5v-4q3 -35 29.5 -59.5t62.5 -24.5t62.5 24.5
t28.5 59.5q1 3 1 4v1.5v1v1v0.5v0.5v0.5zM519 -7q-14 0 -24 9.5t-10 23.5q0 35 7 63.5t14 41.5t13 15q6 -2 13 -15t13.5 -41.5t7.5 -63.5q0 -14 -10 -23.5t-24 -9.5zM821 231q-2 2 -3 2q-1 1 -1.5 1h-1t-0.5 0.5t-0.5 0.5h-0.5v0q-42 19 -82 26.5t-72.5 -1t-44.5 -34.5
q-18 -38 19.5 -82.5t102.5 -74.5v-0.5t0.5 -0.5h0.5h0.5t1 -0.5l0.5 -0.5l4 -2q16 -5 32 -5q26 0 49 14t34 39q15 33 4 67t-42 51zM807 137.5q-6 -12.5 -19 -17.5t-26 1q-31 14 -54 32t-32 30.5t-9 18.5q5 4 20 5t43.5 -5t60.5 -20q12 -6 17 -19t-1 -25.5zM294 514h-0.5
t-0.5 0.5t-0.5 0.5h-0.5l-1 0.5l-1 0.5q-2 1 -4 1q-31 12 -63 0q-36 -13 -52 -47.5t-3 -69.5q12 -32 41 -48q2 -2 4 -3l1 -0.5l1 -0.5h1v0v0q61 -28 113 -30h8q61 0 79 38q17 39 -20 83t-102 75zM240 401q-13 6 -17 19q-5 13 1 25.5t19 17.5t25 -1q31 -15 54 -33t32 -30
t9 -18q-5 -4 -20 -5t-43.5 5t-59.5 20zM682 321q60 0 135 46h0.5h0.5v0.5t0.5 0.5t1 0.5l0.5 0.5l4 2q27 21 34 54q9 37 -12 69q-19 30 -54 39.5t-66 -7.5l-4 -2l-0.5 -0.5t-1 -0.5h-0.5v-0.5t-0.5 -0.5h-0.5q-60 -39 -91.5 -87.5t-9.5 -84.5q19 -29 64 -29zM751 474
q12 7 25.5 4t21 -15t4.5 -26q-3 -13 -15 -20q-29 -19 -57 -28.5t-41.5 -9.5t-21.5 2q-1 6 6.5 19.5t28 34t49.5 39.5zM213 226h-0.5t-0.5 -0.5t-0.5 -0.5h-0.5l-0.5 -0.5t-1.5 -0.5l-3 -3q-27 -23 -31 -59t17 -65q23 -30 60 -36q7 -1 15 -1q26 0 48 14q2 1 3 1q0 1 1 1.5
l1 0.5h0.5h0.5v0.5v0.5q53 40 81 84q35 58 8 94q-17 23 -50.5 25t-71.5 -13t-75 -42zM286 124q-11 -8 -25 -6t-22 13.5t-6 25.5q2 13 13 21q28 21 55.5 32.5t40.5 12.5t21 -1q1 -6 -5 -19.5t-25.5 -36t-46.5 -42.5z" />
    <glyph glyph-name="muying" unicode="&#xe607;" 
d="M512 812q-212 0 -362 -150t-150 -362t150 -362t362 -150t362 150t150 362t-150 362t-362 150zM512 -164q-94 0 -180 36.5t-148.5 99t-99 148.5t-36.5 180t36.5 180t99 148.5t148.5 99t180 36.5t180 -36.5t148.5 -99t99 -148.5t36.5 -180t-36.5 -180t-99 -148.5
t-148.5 -99t-180 -36.5zM290 102q-23 0 -40.5 -17.5t-17.5 -40.5t17.5 -40.5t40.5 -17.5t40.5 17.5t17.5 40.5q3 23 -14.5 40.5t-43.5 17.5zM618 102q-23 0 -40.5 -17.5t-17.5 -40.5t17.5 -40.5t40.5 -17.5t40.5 17.5t17.5 40.5t-17.5 40.5t-40.5 17.5zM379 607
q-18 18 -27 -7q-10 -30 -38 -13q-10 10 -18.5 5.5t-8.5 -19.5t-9 -22t-22 -2q-13 8 -19.5 1.5t-0.5 -21.5q5 -14 -2 -24t-22 -7q-16 0 -20 -7.5t6 -19.5q10 -11 6 -22t-20 -16q-29 -10 -3 -31q13 -7 13 -18.5t-13 -22.5q-22 -16 0 -27h273q10 0 10 14zM802 467
q-17 0 -29.5 -10.5t-18.5 -26.5q-81 -29 -95 -127q0 -10 -10 -10h-454q-5 0 -8 -3.5t-3 -6.5q11 -88 86.5 -146.5t180.5 -58.5q107 0 184 62.5t82 152.5v0q0 55 51 89q14 -14 34.5 -14t34 14t13.5 34q2 23 -11.5 37t-36.5 14z" />
    <glyph glyph-name="nvzhuang" unicode="&#xe60a;" 
d="M512 845q93 0 178.5 -36.5t147.5 -98.5t98.5 -147.5t36.5 -178.5t-36.5 -178.5t-98.5 -147.5t-147.5 -98.5t-178.5 -36.5t-178.5 36.5t-147.5 98.5t-98.5 147.5t-36.5 178.5t36.5 178.5t98.5 147.5t147.5 98.5t178.5 36.5zM512 896q-140 0 -258 -69t-186 -186.5
t-68 -256.5q0 -138 69 -256t187 -187t256 -69t256 69t187 187t69 256t-69 256t-187 187t-256 69v0zM796 164q0 3 -2 12.5t-9.5 32t-19.5 44.5q-20 45 -51 80q-40 47 -87 77q-10 10 -15 20q-5 15 -5 21v0v0q0 25 7 38q22 47 36.5 94.5t12.5 66.5v13l-87 23l-20 5l-6 -13
q-4 -14 -17.5 -30t-25.5 -16v0q-23 0 -46 46l-10 13l-100 -31v-12q0 -6 1.5 -20t9 -45.5t19.5 -60.5q23 -50 26 -74q0 -30 -28 -61q-13 -17 -39 -34q-2 -2 -11 -10t-12.5 -11t-11 -10.5l-12.5 -12.5t-11 -12.5t-11 -14.5q-36 -53 -43 -123v0v0q0 -18 15 -31q29 -29 118 -20
q19 2 41 -11q46 -23 110 -23q52 0 100 36q43 15 105 -5q31 -10 51 5q15 10 21.5 25.5t6.5 23.5v5v0z" />
    <glyph glyph-name="bangzhu" unicode="&#xe627;" 
d="M342 500q0 103 64 146q49 37 113 37q67 0 113 -40q49 -37 49 -113q6 -61 -70 -131q-46 -40 -58 -64.5t-12 -76.5h-67q0 62 15 92q9 28 58 76q3 3 9 10q64 55 55 97q-9 89 -95 92q-104 0 -104 -125h-70v0v0zM547 115h-76v79h76v-79zM512 -128q-139 0 -257 68.5
t-186.5 186.5t-68.5 257q0 104 40.5 199t109 163.5t163.5 109t199 40.5t199 -40.5t163.5 -109t109 -163.5t40.5 -199t-40.5 -199t-109 -163.5t-163.5 -109t-199 -40.5zM512 845q-94 0 -179 -36.5t-147 -98.5t-98.5 -147t-36.5 -179t36.5 -179t98.5 -147t147 -98.5t179 -36.5
t179 36.5t147 98.5t98.5 147t36.5 179t-36.5 179t-98.5 147t-147 98.5t-179 36.5z" />
    <glyph glyph-name="icon1460191793239" unicode="&#xe661;" 
d="M512.5 892q-103.5 0 -197 -40.5t-161.5 -108.5t-108.5 -161.5t-40.5 -196.5t40.5 -197t108.5 -162t161.5 -108.5t197 -40.5t197 40.5t161.5 108.5t108.5 162t40.5 197t-40.5 196.5t-108.5 161.5t-161.5 108.5t-197 40.5zM512.5 -71q-92.5 0 -177 36t-145.5 97t-97 145.5
t-36 177t36 177t97 145.5t145.5 97t177 36t177 -36t145.5 -97t97 -145.5t36 -177t-36 -177t-97 -145.5t-145.5 -97t-177 -36zM490 368.5q-2 10.5 -10.5 17t-19.5 4.5l-50 -8v110h52q10 0 18 7.5t8 18t-8 18.5t-18 8h-52v86q0 11 -7.5 18.5t-18.5 7.5t-18.5 -7.5t-7.5 -18.5
v-86h-35v52q0 10 -7.5 17.5t-18 7.5t-18.5 -7.5t-8 -17.5v-62q0 -14 -6.5 -23t-13.5 -9q-11 0 -18.5 -7.5t-7.5 -18.5t7.5 -18.5t18.5 -7.5q41 0 62 42h45v-118l-107 -16q-11 -2 -17.5 -10.5t-4.5 -19.5q1 -9 8.5 -15.5t17.5 -6.5h4l99 16v-177q0 -10 7.5 -17.5t18.5 -7.5
t18.5 7.5t7.5 17.5v185l58 9q11 1 17.5 10t4.5 19.5zM756 492h-104v52h87q10 0 18 7.5t8 18t-8 18.5t-18 8h-87v69q0 10 -7.5 18t-18.5 8t-18.5 -8t-7.5 -18v-69h-69q-11 0 -18.5 -8t-7.5 -18.5t7.5 -18t18.5 -7.5h69v-52h-86q-11 0 -18.5 -8t-7.5 -18.5t7.5 -18t18.5 -7.5
h242q11 0 18.5 7.5t7.5 18t-7.5 18.5t-18.5 8zM756 370h-52v35q0 11 -7.5 18.5t-18.5 7.5t-18.5 -7.5t-7.5 -18.5v-35h-138q-11 0 -18.5 -7.5t-7.5 -18t7.5 -18t18.5 -7.5h138v-124q0 -14 -2 -19.5t-12.5 -9.5t-33.5 -4q-11 0 -18.5 -7.5t-7.5 -18.5t7.5 -18.5t18.5 -7.5
q14 0 22.5 0.5t25 5t26.5 12.5t18 25.5t8 41.5v124h52q11 0 18.5 7.5t7.5 18t-7.5 18t-18.5 7.5zM539.5 293q-10.5 0 -18 -8t-7.5 -18v-52q0 -11 7.5 -18.5t18 -7.5t18.5 7.5t8 18.5v52q0 10 -8 18t-18.5 8z" />
    <glyph glyph-name="jiancaiguan" unicode="&#xe612;" 
d="M791 596q0 21 -7 35.5t-17 20.5t-20.5 9t-17.5 3l-7 -1h-415q-3 1 -8 0.5t-18 -4t-22.5 -10t-17.5 -21.5t-8 -36v-359q0 -1 -0.5 -15.5t0 -19.5t3 -16.5t7 -16.5t14 -9.5t22.5 -4.5h93v-93h47v93h186v-93h47v93h93q7 0 13.5 2t11 4.5t8 7.5t5.5 8t4 10t2.5 10.5t1 12
t0.5 10.5v11v9v360zM419 617l46 -47h94l46 47h47q0 -29 -13 -61t-34 -32h-186q-21 0 -34 32t-13 61h47zM605 244h-186q-21 0 -34 32.5t-13 60.5h47l46 -46h94l46 46h47q0 -28 -13 -60.5t-34 -32.5zM745 384h-466v47h466v-47zM512 896q-139 0 -257 -68.5t-186.5 -186.5
t-68.5 -257t68.5 -257t186.5 -186.5t257 -68.5t257 68.5t186.5 186.5t68.5 257t-68.5 257t-186.5 186.5t-257 68.5zM512 -81q-95 0 -181 36.5t-148.5 99t-99 148.5t-36.5 181t36.5 181t99 148.5t148.5 99t181 36.5t181 -36.5t148.5 -99t99 -148.5t36.5 -181t-36.5 -181
t-99 -148.5t-148.5 -99t-181 -36.5z" />
    <glyph glyph-name="zhuye" unicode="&#xe701;" 
d="M555 821q-21 22 -42 22q-9 0 -19.5 -5.5t-16.5 -11.5l-5 -5q-367 -367 -394 -393q-15 -16 -20.5 -32.5t-2.5 -24.5l2 -9l18 -20q19 -21 42 -21h42v-354v-4.5t2 -10t6 -13t12.5 -10t21.5 -4.5h166q20 0 30.5 10.5t10.5 20.5l1 11v104q0 2 0.5 4.5t3 10t6.5 13t12.5 10
t19.5 4.5h104q19 0 29.5 -10.5t11.5 -20.5l1 -11v-104v-4.5t2 -10t5.5 -13t12.5 -10t21 -4.5h167q20 0 30.5 10.5t10.5 20.5l1 11v354h42q10 0 20 5.5t16 10.5l6 5l20 20q2 1 4.5 3.5t7 9.5t6.5 14t-1.5 18t-13.5 21z" />
    <glyph glyph-name="zaixiangouyao" unicode="&#xe7b5;" 
d="M827 238v30q0 37 -22 58q-19 19 -46 19h-5l60 235q4 16 -6 29t-26 13h-350q-15 0 -25 -11.5t-8 -26.5l35 -239h-27q-12 0 -21 8t-10 19l-32 219q-2 15 -13 27t-26 15l-75 18q-11 2 -20.5 -4t-12.5 -17q-3 -13 4.5 -25t21.5 -15l27 -7q16 -3 26.5 -15t13.5 -27l33 -230
q1 -11 10 -18.5t21 -7.5l406 -1q2 0 3 -1q3 -4 3 -15v-31v-3q1 -7 -2 -10q-2 -1 -7 -1h-11v0q-9 21 -28 33.5t-42.5 12.5t-42.5 -12.5t-28 -33.5v0h-124v0q-9 21 -28 33.5t-42.5 12.5t-42.5 -12.5t-28 -33.5v0h-8v-61h8v0q9 -21 28 -34t42.5 -13t42.5 13t28 34h1h123v0
q9 -21 28 -34t42.5 -13t42.5 13t29 34v0h10q33 0 52 22q22 24 18 54v0zM534 504h42v41h55v-41h43v-55h-43v-41h-55v41h-42v55v0zM334 197q-1 -3 -1 -5v0q0 2 1 5v0zM430 162q-9 -6 -19.5 -6t-19.5 6q-17 11 -17 30.5t17 30.5q9 6 19.5 6t19.5 -6q17 -11 17 -31
q0 -19 -17 -30v0zM696 162q-9 -6 -20 -6t-20 6q-17 11 -17 30.5t17 30.5q9 6 20 6t20 -6q16 -11 16 -30.5t-16 -30.5v0zM696 162zM512 -128q-104 0 -199 40q-92 39 -163 110q-70 71 -109 162q-40 95 -40 199.5t40 198.5q39 92 109 163q71 71 163 109q95 41 199 41t199 -40
q92 -39 163 -110q70 -71 109 -162q40 -95 40 -199.5t-40 -199.5q-39 -91 -109 -162q-71 -71 -163 -110q-95 -40 -199 -40zM512 854q-96 0 -183 -37.5t-150 -100.5t-100 -150t-37 -182.5t37 -182.5t100 -150t150 -100.5t183 -37.5t183 37.5t150 100.5t100 150t37 182.5
t-37 182.5t-100 150t-150 100.5t-183 37.5z" />
    <glyph glyph-name="nanzhuang" unicode="&#xe640;" 
d="M512.5 895q-104.5 0 -199 -40.5t-163 -109t-109 -163t-40.5 -199t40.5 -199t109 -163t163 -109t199 -40.5t199 40.5t163 109t109 163t40.5 199t-40.5 199t-109 163t-163 109t-199 40.5zM512.5 -77q-93.5 0 -179 36.5t-147 98t-98 147t-36.5 179t36.5 179t98 147t147 98
t179 36.5t179 -36.5t147 -98t98 -147t36.5 -179t-36.5 -179t-98 -147t-147 -98t-179 -36.5zM723 644q5 -9 10 -31t9 -51q4 -32 7 -63q4 -34 7 -65q2 -26 5 -57q2 -28 3 -38q2 -20 4 -45q1 -24 3 -50q1 -24 2 -47q1 -19 2 -36q-8 -10 -17 -16t-19 -7h-5q-7 0 -13 2
q-9 2 -17 10q-2 28 -5 55l-4 42q-3 22 -5 45q-7 58 -13 116q-4 -24 -6 -47q-2 -20 -3.5 -42t-0.5 -39q0 -12 1.5 -18.5t3 -12.5t2.5 -13.5t2.5 -21.5t2.5 -36q2 -22 3 -57q-6 -15 -27.5 -26.5t-48.5 -18.5q-26 -7 -53 -11q-26 -3 -40 -3q-11 0 -26 1.5t-32 4.5q-19 3 -36 8
q-18 4 -34 11t-27.5 15.5t-15.5 18.5q2 35 3.5 57t2.5 36l3 21t3 14q1 6 2 12.5t2 18.5q1 17 0 39l-4 42q-2 23 -6 47q-7 -65 -13 -116q-3 -23 -5 -45q-2 -21 -5 -42q-2 -20 -3 -34q-2 -14 -2 -21q-7 -8 -16 -10q-7 -2 -13 -2h-6q-9 1 -18 7t-17 16q0 14 2 36q1 22 2 47
t3 50.5t4 44.5q0 10 3 38q2 26 5 57q3 28 7 65q3 33 7 62.5t9 51.5t10 31q11 7 30 16l40 16q21 9 39 16q18 8 27 14q6 -8 9.5 -38.5t7.5 -72.5q3 -43 8 -93q5 -48 13 -96l21 210l-16 17l23 34l9 -2l8 2l23 -34l-16 -17l21 -210q8 48 13 97t8.5 91.5t7 73t9.5 38.5
q9 -6 27 -14q19 -7 39 -15.5t40 -16.5q19 -9 30 -16z" />
    <glyph glyph-name="jiadian" unicode="&#xe648;" 
d="M512.5 895q-104.5 0 -199 -40.5t-163 -109t-109 -163t-40.5 -199t40.5 -199t109 -163t163 -109t199 -40.5t199 40.5t163 109t109 163t40.5 199t-40.5 199t-109 163t-163 109t-199 40.5zM512.5 -77q-93.5 0 -179 36.5t-147 98t-98 147t-36.5 179t36.5 179t98 147t147 98
t179 36.5t179 -36.5t147 -98t98 -147t36.5 -179t-36.5 -179t-98 -147t-147 -98t-179 -36.5zM241 467v-352q0 -11 7.5 -18t17.5 -7h493q10 0 17.5 7t7.5 18v352q-131 49 -272 49t-271 -49zM670 300q0 -63 -44 -107.5t-107 -44.5t-107.5 44.5t-44.5 107.5t44.5 107.5
t107.5 44.5t107 -44.5t44 -107.5zM518.5 164q56.5 0 96.5 40t40 96t-40 96t-96.5 40t-96 -40t-39.5 -96t39.5 -96t96 -40zM519 303q20 -11 35 -16.5t35 -4t38 14.5q5 -34 -25.5 -71.5t-82.5 -37.5q-46 0 -77.5 32t-31.5 77q13 17 33 22t38.5 0t37.5 -16zM759 678h-493v0
q-10 0 -17.5 -7t-7.5 -18v0v-165q131 49 271.5 49t271.5 -49v165q0 11 -7.5 18t-17.5 7zM406 584h-119v47h119v-47zM595 583v0q-10 0 -17 7t-7 17t7 17.5t17 7.5v0q10 -1 17 -8t7 -16.5t-7 -17t-17 -7.5zM652 583v0q-10 0 -17.5 7t-7.5 17t7.5 17.5t17.5 7.5v0q10 0 17 -7.5
t7 -17.5t-7 -17t-17 -7zM708 583q-10 0 -17 7t-7 17t7 17.5t17 7.5v0q10 0 17 -7.5t7 -17.5t-7 -17t-17 -7v0zM595.5 619q-4.5 0 -8 -3.5t-3.5 -8t3.5 -8t8 -3.5t8 3.5t3.5 8t-3.5 8t-8 3.5zM651.5 619q-4.5 0 -8 -3.5t-3.5 -8t3.5 -8t8 -3.5t8 3.5t3.5 8t-3.5 8t-8 3.5z
M708 619q-5 0 -8 -3.5t-3 -8t3 -8t8 -3.5v0q5 0 8.5 3.5t3.5 8t-3.5 8t-8.5 3.5v0zM517 209q61 0 84 61q-12 -6 -23 -7t-21.5 1.5t-19 6.5t-20.5 10q-17 10 -28.5 15t-28 5t-28.5 -11q0 -35 24.5 -58t60.5 -23z" />
    <glyph glyph-name="huazhuangpin" unicode="&#xe64d;" 
d="M512.5 895q-104.5 0 -199 -40.5t-163 -109t-109 -163t-40.5 -199t40.5 -199t109 -163t163 -109t199 -40.5t199 40.5t163 109t109 163t40.5 199t-40.5 199t-109 163t-163 109t-199 40.5zM512.5 -77q-93.5 0 -179 36.5t-147 98t-98 147t-36.5 179t36.5 179t98 147t147 98
t179 36.5t179 -36.5t147 -98t98 -147t36.5 -179t-36.5 -179t-98 -147t-147 -98t-179 -36.5zM635 643q-51 46 -76 46q-10 0 -36.5 -10.5t-56 -28t-52 -44.5t-22.5 -54v-107h243v198zM591 619q-14 -23 -52.5 -35t-69.5 -12h-32q73 18 112 35q17 8 20.5 17t-1.5 14l-5 5h4.5
t9.5 -1.5t10 -4t6.5 -7t-2.5 -11.5zM651 430h-274q-26 0 -43.5 -18t-17.5 -43v-259q0 -12 9 -21t21 -9h335v0q13 0 21.5 9t8.5 21v259q0 25 -17.5 43t-42.5 18zM392 148q0 -7 -8 -7h-15v0q-8 0 -8 7v0v183q0 8 8 8h15q8 0 8 -8v-183z" />
    <glyph glyph-name="qitiantuihuo" unicode="&#xe683;" 
d="M512 -128q-138 0 -256 69t-187 187t-69 256t69 256t187 187t256 69t256 -69t187 -187t69 -256t-69 -256t-187 -187t-256 -69zM512 842q-93 0 -178 -36.5t-146 -97.5t-97.5 -146t-36.5 -178t36.5 -178t97.5 -146t146 -97.5t178 -36.5t178 36.5t146 97.5t97.5 146t36.5 178
t-36.5 178t-97.5 146t-146 97.5t-178 36.5zM493 192h256q20 0 25 -22q0 -18 -25 -23h-250q-88 5 -144 51q-3 -3 -6 -3q-31 -30 -64 -41q-19 -5 -29 9q-10 19 10 29q64 25 64 67v115q0 23 -20 23h-41q-9 0 -13 5.5t-6 16.5q0 18 19 23h67q35 0 35 -36v-131q5 -78 122 -83z
M317 598q37 -37 67 -80q12 -16 -3 -32q-18 -9 -32 10q-5 7 -24 30t-31 37l-9 10q-16 10 0 25q16 16 32 0zM678 618q22 0 31.5 -8.5t7.5 -27.5v-140q0 -31 -35 -36h-215v-147q0 -2 0.5 -2.5t2.5 -0.5h4q12 6 24 13t23.5 15t16.5 10q17 14 35 0q12 -16 -7 -35q-46 -35 -89 -54
q-46 -19 -51 29v348q-5 39 38 39zM483 579q-16 0 -16 -19v-22h211v22q0 19 -16 19h-179zM467 451h195q16 0 16 13v35h-211v-48zM550 390q14 -7 74 -54q38 29 64 54q13 13 32 4q13 -18 0 -36q-11 -14 -61 -51q7 -5 16 -14.5t23.5 -24t24.5 -25.5q15 -20 0 -35q-15 -12 -35 3
q-67 77 -163 144q-13 9 -3 29q12 17 28 6z" />
    <glyph glyph-name="icon" unicode="&#xe61f;" 
d="M510 898q-104 0 -198.5 -41t-163 -110t-109 -164t-40.5 -199.5t40.5 -199.5t109 -164t163 -109.5t198.5 -40.5t198.5 40.5t163.5 109.5t109.5 164t40.5 199.5t-40.5 199.5t-109.5 164t-163.5 110t-198.5 41v0zM510 -78q-93 0 -178 37t-146.5 98.5t-98 147t-36.5 179
t36.5 179t98 147.5t146.5 98.5t178 36.5t178 -36.5t146.5 -98.5t98 -147.5t36.5 -179t-36.5 -179t-98 -147t-146.5 -98.5t-178 -37v0zM390 618q2 10 -4.5 19t-17 10.5t-19.5 -5t-10 -17.5l-3 -12t-10.5 -33t-20.5 -52t-35.5 -67t-52.5 -80q-7 -9 -5.5 -19.5t10.5 -17.5
q7 -5 16 -5q13 0 21 11q13 17 25 36v-227q0 -11 8 -18.5t18.5 -7.5t18.5 7.5t8 18.5v314q45 87 53 145v0zM738 457q11 0 18.5 7.5t7.5 18.5t-7.5 19t-18.5 8h-191q4 64 1 113q-1 11 -9 18t-19 7q-11 -1 -18 -9t-6 -19q2 -44 -2 -110h-88q-10 0 -18 -8t-8 -19t8 -18.5
t18 -7.5h84q-22 -197 -108 -270q-9 -7 -9.5 -18t6.5 -19q8 -9 20 -9q9 0 17 6q102 87 127 310h195zM747 308q-11 0 -18.5 -7.5t-7.5 -18.5v-61q0 -9 -10 -18t-18 -9h-52q-15 0 -23 9q-6 6 -6 20v190q0 11 -7.5 18.5t-18.5 7.5v0q-11 0 -18.5 -7.5t-7.5 -18.5q0 -158 -1 -190
q0 -35 22 -57q24 -24 60 -24h52q29 0 54.5 23.5t25.5 55.5v61q0 11 -7.5 18.5t-18.5 7.5v0zM606 579l63 -28q5 -2 10 -2q18 0 25 16q4 10 0 20t-14 15l-63 27q-10 4 -20 0t-14.5 -14t-0.5 -20t14 -14v0zM606 579z" />
    <glyph glyph-name="zuanshi" unicode="&#xe501;" 
d="M512 -102q-99 0 -189 38.5t-155 103.5t-103.5 155t-38.5 189t38.5 189t103.5 155t155 103.5t189 38.5t189 -38.5t155 -103.5t103.5 -155t38.5 -189t-38.5 -189t-103.5 -155t-155 -103.5t-189 -38.5zM512 819q-88 0 -169 -34.5t-139 -92.5t-92.5 -139t-34.5 -169
t34.5 -169t92.5 -139t139 -92.5t169 -34.5t169 34.5t139 92.5t92.5 139t34.5 169t-34.5 169t-92.5 139t-139 92.5t-169 34.5zM785 418v51v-51h-541v51h541v-51zM512 88l-306 364l140 171h320l17 -17l136 -153zM272 452l240 -284l239 283l-114 121h-267zM514 90l-139 363
l137 170l137 -171zM439 447l73 -217l75 218l-75 107z" />
    <glyph glyph-name="shouji" unicode="&#xe602;" 
d="M511.5 -128q-103.5 0 -197.5 40.5t-162.5 109t-108.5 163.5t-40 199t40 199t108.5 163.5t162.5 109t197.5 40.5t198 -40.5t162.5 -109t108.5 -163.5t40.5 -199t-40.5 -199t-108.5 -163.5t-162.5 -109t-198 -40.5zM512 839q-92 0 -176 -36t-144.5 -97t-96.5 -145t-36 -177
t36 -177t96.5 -145t144.5 -97t176 -36t175.5 36t144.5 97t96.5 145t35.5 177t-35.5 177t-96.5 145t-144.5 97t-175.5 36zM624 43h-225v0q-47 0 -80 33t-33 80v399q0 47 33 80t80 33h225v0q47 0 80.5 -33t33.5 -80v-399q0 -47 -33.5 -80t-80.5 -33zM681 513q0 24 -16.5 40.5
t-39.5 16.5h-226q-24 0 -40.5 -16.5t-16.5 -40.5v-315q0 -24 16.5 -40.5t40.5 -16.5h226q23 0 39.5 16.5t16.5 40.5v315z" />
    <glyph glyph-name="jiaju" unicode="&#xe63c;" 
d="M512 890q-103 0 -196.5 -40.5t-161 -108t-108 -161t-40.5 -196.5t40.5 -196.5t108 -161t161 -108t196.5 -40.5t196.5 40.5t161 108t108 161t40.5 196.5t-40.5 196.5t-108 161t-161 108t-196.5 40.5zM512 -60q-90 0 -172 35t-142 95t-95 142t-35 172t35 172t95 142t142 95
t172 35t172 -35t142 -95t95 -142t35 -172t-35 -172t-95 -142t-142 -95t-172 -35zM258 497q28 0 50 -17t30 -43l12 -26q20 6 72 13t90 7q37 0 88.5 -7t71.5 -13l14 30q9 24 31 39t47 15h8q0 48 -34 84t-83 36h-288q-48 0 -82.5 -35.5t-34.5 -84.5q2 0 4.5 1t3.5 1zM766 468
q-19 0 -33 -10t-18 -27l-27 -59q-2 2 -24 9.5t-65 16.5t-83 9t-84 -9t-67 -16.5t-25 -9.5l-25 55q-4 17 -19.5 29t-33.5 12q-23 0 -39 -16t-16 -39q0 -20 11 -34.5t30 -19.5l10 -88q5 -16 21 -24t30 -8h15h385l5 -0.5t14 1t18 4.5t17 10t11 17l10 88q18 5 29.5 20t11.5 34
q-3 22 -20 38.5t-39 16.5zM268 220v-37q0 -10 8.5 -20t18.5 -10h24q10 0 17.5 9.5t7.5 20.5v27h-25q-17 -1 -29.5 1.5t-17.5 5.5zM680 208v-27q0 -10 7 -20t18 -10h24q10 0 21.5 10t11.5 20v41q-19 -14 -55 -14h-27z" />
    <glyph glyph-name="xie" unicode="&#xe642;" 
d="M512 890q-103 0 -196.5 -40.5t-161 -108t-108 -161t-40.5 -196.5t40.5 -196.5t108 -161t161 -108t196.5 -40.5t196.5 40.5t161 108t108 161t40.5 196.5t-40.5 196.5t-108 161t-161 108t-196.5 40.5zM512 -60q-90 0 -172 35t-142 95t-95 142t-35 172t35 172t95 142t142 95
t172 35t172 -35t142 -95t95 -142t35 -172t-35 -172t-95 -142t-142 -95t-172 -35zM782 597h-135q-20 -2 -26 -18q-11 -31 -38 -68.5t-73 -67.5q-43 -27 -91 -41.5t-75 -14.5l-27 -1q-48 0 -82 -34t-34 -83v-57q0 -16 11 -27.5t28 -11.5h501q33 0 55.5 23t22.5 55v307
q2 15 -9.5 27t-27.5 12zM416 306q-8 0 -13.5 5.5t-5.5 13.5l-10 32l37 11l10 -37q0 -1 1 -3t1 -3q-1 -7 -7 -13t-13 -6zM512 345q-13 0 -16 10l-27 39l41 10l20 -30q2 -2 2 -8q-3 -21 -20 -21zM590 402q-12 0 -19 11l-30 32l34 17l29 -27q4 -8 4 -12q0 -8 -5.5 -14.5
t-12.5 -6.5zM647 480h-6l-45 31l29 27l34 -25q7 -6 7 -14t-5.5 -13.5t-13.5 -5.5z" />
    <glyph glyph-name="tushu" unicode="&#xe603;" 
d="M512 896q-104 0 -199 -40.5t-163.5 -109t-109 -163.5t-40.5 -199t40.5 -199t109 -163.5t163.5 -109t199 -40.5t199 40.5t163.5 109t109 163.5t40.5 199t-40.5 199t-109 163.5t-163.5 109t-199 40.5zM512 -81q-95 0 -181 36.5t-148.5 99t-99 148.5t-36.5 181t36.5 181
t99 148.5t148.5 99t181 36.5t181 -36.5t148.5 -99t99 -148.5t36.5 -181t-36.5 -181t-99 -148.5t-148.5 -99t-181 -36.5zM490 58q-91 68 -193 79q-19 2 -51.5 1.5t-47.5 -3.5h-3l-1 240v241q2 2 47 3q108 3 192 -43q27 -15 58 -38l10 -7v-240v-169.5t-1 -70.5zM532 58
q91 68 193 79q19 2 51.5 1.5t47.5 -3.5h3l1 240v241q-2 2 -47 3q-108 3 -192 -43q-27 -15 -58 -38l-10 -7v-240v-169.5t1 -70.5z" />
    <glyph glyph-name="qiche" unicode="&#xe750;" 
d="M512 896q-139 0 -257 -68.5t-186.5 -186.5t-68.5 -257t68.5 -257t186.5 -186.5t257 -68.5t257 68.5t186.5 186.5t68.5 257t-68.5 257t-186.5 186.5t-257 68.5zM512 -79q-94 0 -180 37t-147.5 98.5t-98.5 147.5t-37 180t37 180t98.5 147.5t147.5 98.5t180 37t180 -37
t147.5 -98.5t98.5 -147.5t37 -180t-37 -180t-98.5 -147.5t-147.5 -98.5t-180 -37zM831 493h-63q-4 0 -8 -2l-28 86q-7 35 -30 53.5t-56 18.5h-267q-35 0 -57.5 -20t-28.5 -52l-29 -86q-4 2 -8 2h-63q-8 0 -13 -5t-5 -12v-15q0 -8 5 -13t13 -5l23 -4q-11 -23 -11 -51l-9 -101
v-9v-6v-122q0 -13 9 -22t22 -9h48q13 0 22 9t9 22v39h412v-39q0 -13 9 -22t22 -9h48q13 0 22.5 9t9.5 22v122q0 3 -1 6q1 4 1 9l-9 101q0 28 -12 51l23 4q7 0 12.5 5t5.5 13v15q0 7 -5 12t-13 5zM314 511l21 56v1q1 6 2.5 8.5t6 7.5t5.5 6h327q2 -2 4.5 -5.5t4 -5t2.5 -4.5
l2 -6l21 -58l8 -31q-1 -16 -17.5 -28t-34.5 -12h-308q-18 0 -34 12t-18 28zM328.5 247q-19.5 0 -33.5 14t-14 33.5t14 33.5t33.5 14t33.5 -14t14 -33.5t-14 -33.5t-33.5 -14zM594 282q0 -6 -4 -10t-10 -4h-133q-6 0 -10 4t-4 10v40q0 5 4 9.5t10 4.5h133q6 0 10 -4.5t4 -9.5
v-40zM695.5 247q-19.5 0 -33.5 14t-14 33.5t14 33.5t33.5 14t33.5 -14t14 -33.5t-14 -33.5t-33.5 -14z" />
    <glyph glyph-name="shipin" unicode="&#xe751;" 
d="M512 384zM512 896q-139 0 -257 -68.5t-186.5 -186.5t-68.5 -257t68.5 -257t186.5 -186.5t257 -68.5t257 68.5t186.5 186.5t68.5 257t-68.5 257t-186.5 186.5t-257 68.5zM512 -79q-94 0 -180 37t-147.5 98.5t-98.5 147.5t-37 180t37 180t98.5 147.5t147.5 98.5t180 37
t180 -37t147.5 -98.5t98.5 -147.5t37 -180t-37 -180t-98.5 -147.5t-147.5 -98.5t-180 -37zM172 594h237q6 0 8 6l22 71q14 30 43 27h156l-1 -30l-147 -1q-15 -2 -21 -15l-14 -49q-3 -10 5 -9h50l-28 -463h-279zM244 70l554 2q7 1 18.5 1.5t15.5 1t11 3t9.5 6.5t5 12t2.5 19
l-696 -2q0 -13 5 -21.5t9.5 -12.5t18.5 -6.5t20.5 -2.5h26.5zM565 131l219 2q29 3 39 19t12 54h-321q-1 -37 9 -53.5t42 -21.5zM549 316q-41 -3 -43 -45q2 -38 43 -44q19 2 33 14q15 -13 34 -14q19 0 29 11q9 -11 30 -11t32 11q11 -11 30 -12q16 3 29 12q14 -13 35 -11
q41 9 39 49q-6 38 -42 40q-16 2 -33 -12q-13 13 -31 10q-15 4 -29 -10q-9 10 -28 11q-17 1 -29 -11q-2 -1 -3 0q-11 12 -33 12q-17 0 -29 -14q-15 16 -34 14zM584 414q-72 -8 -70 -78h320q-4 71 -64 78h-186zM206 557l4 -87q3 -8 9 -7l155 2q5 0 7 5l23 85q-1 5 -5 6h-189
q-4 0 -4 -4zM473 470l4 85q-1 6 -6 6h-23q-6 0 -7 -5l-24 -85q1 -5 5 -6l46 1q5 0 5 4z" />
    <glyph glyph-name="-x" unicode="&#xe505;" 
d="M361 -108q-67 22 -112.5 50t-98.5 81q-78 79 -114 165t-36 196.5t36 196.5t114 165q81 80 164.5 115t197 35t197.5 -35t164 -115.5t115 -164.5t35 -197q0 -109 -33 -192t-108 -163q-90 -95 -219 -136q-66 -21 -152.5 -21t-149.5 20zM631 -83q128 34 221 126t126 217
q12 48 12 124.5t-12 124.5q-29 113 -111 201t-198 131q-30 11 -58.5 14.5t-99 3.5t-99 -3.5t-58.5 -14.5q-105 -39 -183.5 -117t-113.5 -180q-17 -47 -22 -126.5t6 -132.5q25 -130 120.5 -231t227.5 -137q38 -11 120.5 -11t121.5 11zM253.5 118q-9.5 10 -9.5 23q0 4 6.5 6.5
t34.5 4t73 2t133 0.5q248 0 248 -8q0 -4 -8 -22q-6 -11 -40.5 -13.5t-197.5 -2.5q-230 0 -239.5 10zM372 187q-30 30 -52 79.5t-25 93.5q-2 20 -2.5 30t3 19.5t8 13t17.5 6.5t27 3.5t41 0.5q59 0 70.5 3t22.5 21q15 25 12 42.5t-27 44.5q-28 31 -28 52q0 19 15.5 40.5
t32.5 26.5q13 3 16 -2.5t-8 -12.5q-12 -7 -7 -32.5t24 -48.5q47 -59 0 -109l-23 -25h96q66 0 83 -2.5t24 -13.5q10 -16 23 -16q15 0 37 -18.5t28 -36.5q13 -33 -18 -71t-75 -42q-36 -5 -50 -25q-11 -17 -17.5 -24.5t-15 -14.5t-24 -8.5t-31.5 -2.5t-52 -1h-96zM404 236
q-17 42 -21 97q-2 39 -5.5 49.5t-12.5 10.5q-16 0 -16.5 -30.5t12.5 -70.5t33 -66q21 -28 24 -28q1 0 -0.5 5t-5 14t-8.5 19zM720 289q16 14 18.5 32t-9 29.5t-21.5 9t-10 -15.5q0 -14 -11 -45q-4 -10 -6 -15.5t-2 -8.5t2 -3.5t7 -0.5q13 0 32 18zM404 451q13 12 9 32.5
t-23 41.5q-25 29 -25 42q0 7 12 23t25.5 27.5t17.5 7.5q6 -5 -4 -15q-23 -22 10 -66q21 -27 21 -47q0 -19 -13 -37.5t-26 -18.5t-4 10zM563 472q14 16 12 32.5t-23 39.5q-24 28 -24 43q0 8 12 25t25 29t17 8q6 -4 -4 -14q-23 -24 11 -69q20 -26 20 -46q0 -18 -16.5 -40.5
t-29.5 -22.5q-9 0 -9 2.5t9 12.5z" />
  </font>
</defs>
</svg>
